<svg class="camera" viewBox="0 0 500 500" version="1.1" xmlns="http://www.w3.org/2000/svg" xmlns:xlink="http://www.w3.org/1999/xlink">
    <!-- Generator: Sketch 55.2 (78181) - https://sketchapp.com -->
    <title>Combined Shape</title>
    <desc>Created with Sketch.</desc>
    <g stroke="none" stroke-width="1" fill="none" fill-rule="evenodd">
        <path d="M375,159.549451 L375,340 L125,340 L125,159.554348 L159.412651,159.180297 C169.911154,159.066183 179.803897,154.245129 186.362647,146.046691 L200,129 L301,129 L314.638952,146.04869 C321.196788,154.245985 331.087742,159.066898 341.584768,159.18225 L375,159.549451 Z M395,159.769231 L416,160 L416,340 L395,340 L395,159.769231 Z M105,159.771739 L105,340 L84,340 L84,160 L105,159.771739 Z M250,500 C111.928813,500 0,388.071187 0,250 C0,111.928813 111.928813,0 250,0 C388.071187,0 500,111.928813 500,250 C500,388.071187 388.071187,500 250,500 Z M64,340 C64,351.045695 72.954305,360 84,360 L416,360 C427.045695,360 436,351.045695 436,340 L436,160.281899 C436,149.236204 427.045695,140.281899 416,140.281899 L344.934001,140.281899 C338.994674,140.281899 333.362583,137.642138 329.562751,133.077393 L315.517249,116.204506 C311.717417,111.639761 306.085326,109 300.145999,109 L200.02795,109 C193.989082,109 188.273538,111.728586 184.476382,116.424279 L171.187618,132.85762 C167.390462,137.553313 161.674918,140.281899 155.63605,140.281899 L84,140.281899 C72.954305,140.281899 64,149.236204 64,160.281899 L64,340 Z M250,320 C291.421356,320 325,286.421356 325,245 C325,203.578644 291.421356,170 250,170 C208.578644,170 175,203.578644 175,245 C175,286.421356 208.578644,320 250,320 Z M250,302 C218.519769,302 193,276.480231 193,245 C193,213.519769 218.519769,188 250,188 C281.480231,188 307,213.519769 307,245 C307,276.480231 281.480231,302 250,302 Z M250,281 C269.882251,281 286,264.882251 286,245 C286,225.117749 269.882251,209 250,209 C230.117749,209 214,225.117749 214,245 C214,264.882251 230.117749,281 250,281 Z M250,261 C241.163444,261 234,253.836556 234,245 C234,236.163444 241.163444,229 250,229 C258.836556,229 266,236.163444 266,245 C266,253.836556 258.836556,261 250,261 Z"></path>
    </g>
</svg>