<?xml version="1.0" encoding="UTF-8"?>
<svg viewBox="0 0 1440 433" version="1.1" xmlns="http://www.w3.org/2000/svg" xmlns:xlink="http://www.w3.org/1999/xlink">
    <!-- Generator: Sketch 55.2 (78181) - https://sketchapp.com -->
    <title>crowd</title>
    <desc>Created with Sketch.</desc>
    <g id="Page-1" stroke="none" stroke-width="1" fill="none" fill-rule="evenodd" opacity="0.3">
        <g id="Desktop-HD-Copy" transform="translate(0.000000, -482.000000)" fill-rule="nonzero" stroke="#FFFFFF">
            <path d="M456.593733,910.997343 C449.269983,902.995523 444.587587,899.694773 432.58144,894.093499 C427.178675,891.692953 425.617876,888.992339 421.415725,874.389017 C419.734864,868.587698 417.813881,863.186469 417.093512,862.386287 C416.253082,861.686128 413.371607,861.085992 410.490132,861.085992 C405.687673,861.085992 405.207428,860.885946 405.207428,858.685446 C405.207428,857.285127 405.807735,855.884809 406.408042,855.58474 C408.208964,854.684536 407.84878,838.48085 405.687673,830.178962 C403.406506,820.576778 399.204355,795.771136 399.204355,791.070067 C399.204355,789.069612 398.123801,784.768634 396.803125,781.567906 C390.920114,767.464698 390.439868,762.06347 392.600974,738.958215 C394.882142,714.852732 394.401896,700.94957 390.920114,690.547204 C386.117655,676.443997 384.556856,668.842268 384.076611,659.640175 C383.836488,653.738833 382.755935,647.4374 381.195136,642.836353 C378.553783,635.634715 370.269543,618.530825 367.628191,614.829983 C366.187453,612.829528 366.187453,612.729506 373.271079,608.428527 C374.591755,607.728368 375.312124,606.728141 374.831878,606.32805 C374.351632,605.927959 373.151018,606.528095 372.190526,607.728368 C371.230034,608.828618 368.108436,610.32896 365.1069,610.929096 C362.105363,611.529233 359.34395,612.429437 358.983765,613.029574 C358.623581,613.529688 357.182844,614.029801 355.862168,614.029801 C353.701061,614.029801 354.061246,614.930006 358.983765,622.931826 C365.707207,633.734283 365.94733,635.534692 361.505056,659.040038 C358.50352,674.443542 352.980692,691.947523 349.49891,696.548569 C348.65848,697.64882 347.577927,701.049593 347.217742,704.050276 C346.497374,710.851822 343.135653,725.755212 342.175161,727.055508 C340.494301,729.356031 339.173625,726.555394 339.173625,720.754075 C339.173625,713.952528 338.213133,714.152573 334.971473,721.554257 C332.570244,727.055508 328.848339,732.056645 327.047417,732.056645 C325.126434,732.056645 325.846803,728.155758 329.088462,721.954348 C332.810367,714.452641 332.089998,713.252368 327.647724,719.753847 C320.68416,730.05619 318.643115,732.356714 317.202377,731.156441 C316.241886,730.356259 316.60207,728.855917 318.523053,725.555167 C321.644651,720.153938 321.764713,719.353756 319.363484,721.054143 C315.401456,723.754757 316.241886,720.654052 321.884774,711.351936 L327.767786,701.549707 L327.527663,665.341472 L327.28754,629.133236 L324.165942,625.232349 C322.36502,622.931826 319.123361,620.53128 316.241886,619.43103 C313.480472,618.430802 309.99869,616.230302 308.437891,614.529915 C306.636969,612.52946 303.635432,610.829073 300.513834,610.128914 C297.632359,609.428755 292.70984,607.728368 289.46818,606.428072 C286.226521,605.027754 283.465107,604.127549 283.465107,604.227572 C283.345046,604.427617 282.264493,605.727913 281.183939,607.228254 C279.743202,609.128687 279.142895,612.129369 279.142895,616.730416 C279.142895,621.031394 278.302464,624.932281 276.981788,627.232804 C274.700621,631.233714 266.176257,639.335557 263.054659,640.335784 C260.65343,641.135966 260.65343,643.936603 263.054659,653.938878 L264.975642,661.940698 L260.65343,668.5422 C256.57134,674.543565 255.850971,675.043678 252.129066,675.043678 C246.606239,675.043678 240.723227,670.842723 240.723227,666.941836 C240.723227,665.041403 241.323535,664.041176 242.524149,664.041176 C243.964887,664.041176 244.325071,662.440812 244.325071,656.039356 L244.325071,647.937513 L238.321998,648.637673 C232.438987,649.237809 232.198864,649.237809 226.916159,644.836808 L221.513394,640.335784 L220.312779,643.936603 C217.551366,652.238491 213.349214,675.543792 212.98903,684.745885 C212.868969,686.046181 214.309706,688.446727 215.990567,690.147113 C217.671427,691.8475 219.112165,693.847955 219.112165,694.548114 C219.112165,695.348296 220.793025,697.548797 222.83407,699.449229 C226.195791,702.74998 226.676037,705.050503 223.794562,705.050503 C223.074193,705.050503 220.793025,703.450139 218.631919,701.549707 C212.1486,695.548342 207.946449,699.049138 206.505711,711.551982 C205.425158,720.854097 204.944912,722.254416 202.543683,721.854325 C200.862823,721.554257 200.502638,720.253961 200.502638,715.152801 C200.502638,711.652004 200.022392,708.551299 199.302024,708.451276 C198.701716,708.251231 195.580118,711.451959 192.45852,715.552892 C184.774587,725.655189 181.292805,725.355121 186.69557,715.052778 L189.0968,710.551754 L184.654526,714.852732 C180.452374,718.75362 175.890039,720.454006 175.890039,718.05346 C175.890039,717.553347 177.811022,714.852732 180.09219,712.152118 C185.494956,705.850685 185.374894,704.350344 179.852067,707.551072 C175.409793,710.05164 172.288195,710.7518 172.288195,709.251458 C172.288195,708.851367 175.529855,706.150753 179.491883,703.250094 C183.814095,700.049366 188.376431,695.448319 191.017783,691.547432 L195.339995,685.045953 L192.698643,683.245544 C190.417476,681.745202 190.297414,681.145066 191.61809,678.544474 C192.338459,676.844088 193.419012,669.042313 193.899258,661.040493 C194.499565,653.038673 195.460057,645.236899 196.300487,643.536512 C197.020856,641.936148 198.461593,636.834988 199.422085,632.233942 C200.382577,627.632895 201.703253,622.831803 202.423622,621.331462 C203.023929,619.931144 203.14399,616.030256 202.783806,612.52946 L201.943376,606.228027 L197.020856,606.628118 C191.978275,607.028209 192.218398,606.628118 197.621163,605.62789 C199.422085,605.327822 201.102946,604.127549 201.46313,603.027299 C201.943376,601.426935 200.742761,600.226662 195.460057,597.426025 C191.858213,595.525593 189.0968,593.625161 189.456984,593.325092 C189.817168,593.025024 192.098336,593.825206 194.499565,595.025479 C199.422085,597.526048 201.703253,597.025934 197.020856,594.525365 C195.339995,593.525138 193.899258,592.324865 193.899258,591.724728 C193.899258,591.224615 194.85975,591.42466 196.060364,592.324865 C200.022392,595.325547 201.823314,594.525365 201.343068,589.824296 C201.102946,587.42375 200.142454,584.823159 199.302024,584.022977 C196.300487,580.922271 196.060364,579.621976 198.941839,581.822476 C202.903867,584.823159 203.504175,584.623113 203.504175,580.122089 C203.504175,574.720861 201.46313,573.620611 192.938766,574.32077 C186.455447,574.920906 177.090654,573.520588 177.090654,572.020247 C177.090654,569.519678 152.237931,576.221202 150.917255,579.121862 C150.677132,579.621976 149.836702,579.721998 149.116333,579.321907 C148.275903,579.021839 148.03578,579.021839 148.516026,579.521953 C148.996272,579.922044 148.87621,580.922271 148.03578,581.722453 C147.315411,582.422613 147.075289,583.42284 147.555534,583.822931 C148.03578,584.223022 149.236395,583.622886 150.196887,582.622658 C151.637624,580.922271 151.877747,580.922271 151.877747,582.32259 C151.877747,583.222795 151.037317,585.823386 149.956764,588.023887 C148.636088,590.724501 148.275903,593.22507 148.87621,595.825661 C150.677132,604.127549 149.236395,619.631075 146.114797,624.632213 C141.672523,631.933873 131.107114,638.035261 123.062997,638.035261 C119.821337,638.035261 109.255929,633.334192 106.014269,630.433532 C101.571995,626.432622 100.251319,622.931826 100.251319,615.030029 C100.251319,611.029119 99.6510118,607.828391 98.9306431,607.4283 C97.0096597,606.428072 98.3303358,598.32623 100.851626,596.025706 C102.052241,594.925456 102.652548,593.425115 102.172302,592.52491 C101.692057,591.42466 101.93218,591.124592 102.892671,591.624706 C103.853163,592.124819 103.973224,591.324637 103.492979,588.724046 C103.132794,586.423523 103.372917,584.923181 104.213347,584.623113 C105.2939,584.122999 105.2939,583.922954 104.213347,583.42284 C103.372917,583.122772 102.652548,582.422613 102.652548,581.922499 C102.652548,581.322362 103.252856,581.22234 103.853163,581.522408 C104.573532,581.822476 105.053778,581.422385 105.053778,580.622203 C105.053778,579.621976 102.292364,578.721771 95.8090451,577.521498 C90.6464023,576.621293 85.7238825,575.721088 85.0035137,575.521043 C84.043022,575.220975 83.4427147,573.120497 83.4427147,569.819746 L83.4427147,564.518541 L73.7177365,558.517176 C63.5125124,552.315765 53.3072883,543.713809 50.3057518,538.812694 C48.9850757,536.612194 48.5048299,531.911124 48.2647069,519.708349 C48.024584,501.004095 46.8239694,497.703344 39.9804662,496.503071 C37.8193599,496.10298 31.4561025,494.002502 25.8132139,491.701979 C20.1703253,489.501479 12.1262075,486.600819 7.8039949,485.300523 L0,483 L656.496063,483 L1312.87207,483 L1314.07268,485.600591 C1314.79305,487.00091 1315.27329,489.20141 1315.27329,490.601729 C1315.27329,492.302116 1315.99366,493.002275 1317.55446,493.002275 C1318.87514,493.002275 1320.31588,493.502389 1320.67606,494.002502 C1322.1168,496.002957 1323.43747,494.902707 1326.43901,489.001365 L1329.56061,483 L1384.30863,483 C1431.25267,483 1438.9366,483.200045 1438.9366,484.500341 C1438.9366,485.2005 1437.97611,486.400773 1436.89555,486.900887 C1434.97457,487.801092 1434.97457,488.10116 1436.53537,489.001365 C1437.49586,489.501479 1438.9366,490.101615 1439.53691,490.301661 C1440.25727,490.501706 1440.13721,491.301888 1439.17672,492.202093 C1438.21623,493.20232 1434.61439,494.102525 1430.29217,494.502616 L1423.08849,495.202775 L1426.45021,497.003185 C1430.65236,499.403731 1432.33322,501.9043 1430.65236,503.304618 C1428.9715,504.704937 1414.68418,499.403731 1409.28142,495.202775 C1405.19933,492.10207 1404.59902,492.002047 1395.35429,492.002047 C1387.19011,492.002047 1385.26913,492.302116 1382.98796,494.102525 C1381.3071,495.402821 1378.42562,496.203003 1375.0639,496.403048 C1368.10034,496.703117 1359.45591,501.20414 1356.09419,506.205278 C1354.65345,508.305756 1352.73247,510.406233 1351.65192,510.806324 C1350.69143,511.306438 1348.2902,514.607189 1346.36921,518.107985 C1343.36768,523.709259 1343.00749,525.709714 1342.88743,534.211648 C1342.88743,549.615151 1341.92694,550.31531 1320.07575,552.615833 C1303.14709,554.416243 1292.8218,558.117085 1293.42211,562.218017 C1293.54217,563.618336 1292.8218,566.619018 1291.86131,569.019564 C1289.7002,574.020702 1289.46008,579.621976 1291.38106,580.622203 C1292.22149,581.022294 1292.46162,582.522635 1291.86131,584.923181 C1291.38106,586.923636 1290.78076,591.42466 1290.6607,595.025479 C1290.42057,601.927049 1287.89928,607.228254 1282.25639,612.829528 L1279.1348,615.930234 L1286.09836,627.732918 C1289.94033,634.234397 1293.30205,639.735648 1293.66223,640.035716 C1294.02242,640.335784 1295.70328,642.236217 1297.62426,644.236672 C1299.42518,646.237127 1301.94647,648.237582 1303.26715,648.53765 C1306.62887,649.437855 1306.26869,652.638582 1302.66684,654.639037 C1300.98598,655.539242 1299.6653,656.939561 1299.6653,657.739743 C1299.6653,660.240311 1308.54985,672.943201 1310.5909,673.343292 C1313.11219,673.943428 1318.03471,682.845453 1316.95416,684.94593 C1316.47391,685.846135 1316.23379,687.346476 1316.35385,688.346704 C1316.47391,689.246909 1315.75354,690.347159 1314.79305,690.647227 C1313.7125,690.947295 1313.23225,691.647455 1313.59243,692.247591 C1313.95262,692.747705 1313.23225,693.447864 1311.79151,693.747932 C1309.15016,694.348069 1308.54985,695.548342 1310.47084,696.548569 C1312.63194,697.64882 1311.67145,699.049138 1308.78998,699.049138 C1304.58782,699.049138 1297.74432,691.147341 1295.82334,684.145748 C1295.10297,681.045043 1292.70174,675.143701 1290.6607,671.042768 C1287.29897,664.241221 1286.69867,663.641085 1283.45701,663.541062 C1280.69559,663.541062 1279.85516,662.940926 1279.01473,660.54038 C1277.81412,656.639492 1263.64687,633.434215 1257.28361,625.032304 C1250.19998,615.43012 1244.67716,608.228482 1239.51451,601.727003 C1236.87316,598.526275 1234.83212,595.525593 1234.83212,595.125502 C1234.83212,594.725411 1233.75156,593.525138 1232.43089,592.52491 C1231.11021,591.524683 1230.02966,590.224387 1230.02966,589.624251 C1230.02966,587.623796 1228.22874,586.223477 1224.86702,585.523318 C1222.22566,584.923181 1221.62536,585.123227 1221.62536,586.623568 C1221.62536,589.924319 1213.34112,611.329187 1209.61921,617.730643 C1205.41706,624.732235 1200.73466,628.5331 1194.25134,630.033441 C1181.76495,632.834078 1173.24059,629.833396 1165.31653,619.631075 C1156.31192,608.128459 1153.79063,597.526048 1157.51254,587.123682 C1159.43352,581.522408 1159.1934,580.422158 1156.19186,581.322362 C1155.11131,581.722453 1154.39094,583.122772 1154.39094,584.923181 C1154.39094,586.523545 1153.67057,588.023887 1152.71008,588.323955 C1151.3894,588.724046 1151.14928,589.924319 1151.62952,592.324865 C1151.98971,594.525365 1151.50946,596.925911 1150.18879,599.026389 C1148.50793,601.827026 1148.2678,603.827481 1148.86811,610.028891 C1149.34836,614.129824 1150.06873,622.031621 1150.30885,627.532872 C1150.66903,633.034124 1151.3894,639.135511 1151.98971,641.035944 C1152.59002,642.936376 1153.31039,649.237809 1153.79063,655.039128 C1154.63106,667.742018 1156.67211,679.044588 1158.47303,680.94502 C1159.43352,681.945248 1159.07334,682.74543 1156.91223,684.145748 C1154.39094,685.846135 1154.27088,686.546294 1154.99125,691.247364 C1156.43198,700.94957 1157.15235,701.749752 1167.47764,704.350344 C1175.28163,706.350799 1176.72237,707.050958 1177.08255,709.151436 C1177.68286,712.752255 1174.56126,725.055053 1173.12053,725.055053 C1172.2801,725.055053 1169.75881,723.054598 1167.23751,720.654052 C1163.03536,716.453096 1154.99125,711.251913 1150.54897,709.751572 C1148.14774,709.051413 1145.26627,703.750207 1143.46535,697.048683 C1140.22369,684.845908 1140.34375,685.045953 1134.94098,685.045953 C1130.25858,685.045953 1130.13852,684.94593 1130.97895,682.345339 C1132.89994,675.943883 1132.77988,669.842495 1130.61877,659.540152 C1129.29809,653.438764 1127.49717,644.036626 1126.7768,638.535375 C1125.93637,633.034124 1124.01539,624.332144 1122.33453,619.130962 C1119.33299,610.028891 1119.33299,609.428755 1120.65367,594.625388 C1121.37404,586.3235 1121.97434,577.721543 1121.97434,575.521043 L1121.85428,571.520133 L1118.97281,574.32077 C1117.29195,575.821111 1115.97127,577.621521 1115.97127,578.32168 C1116.09133,579.021839 1117.17189,578.421703 1118.3725,577.121407 C1121.37404,574.220747 1121.4941,575.921134 1118.85275,582.422613 C1117.65213,585.423295 1117.17189,588.423978 1117.65213,590.824524 C1118.73268,595.925684 1118.73268,597.225979 1117.53207,607.528323 C1116.93176,612.52946 1115.61109,617.63062 1114.77066,619.030939 C1109.72808,627.032759 1101.32377,632.033896 1093.03953,632.033896 C1087.63677,632.033896 1077.31148,627.732918 1073.46951,623.932053 C1070.10779,620.631303 1067.34638,611.329187 1068.30687,606.428072 C1068.66706,604.52764 1068.42693,602.827253 1067.82663,602.527185 C1065.90564,601.526958 1066.62601,594.625388 1069.02724,590.924546 C1070.82816,588.123909 1071.06828,587.023659 1069.98773,586.123454 C1068.90718,585.22325 1069.02724,585.023204 1070.82816,585.623341 C1072.86921,586.3235 1072.98927,586.023432 1072.38896,583.222795 C1071.90872,581.522408 1072.14884,579.822021 1072.86921,579.42193 C1073.58958,579.021839 1073.46951,578.32168 1072.50902,577.22143 C1071.30841,576.021157 1071.30841,575.821111 1072.50902,576.421248 C1073.46951,576.921361 1073.94976,576.52127 1073.94976,575.220975 C1073.94976,573.720633 1072.50902,573.120497 1066.14577,572.220292 C1061.82355,571.520133 1056.78097,570.719951 1054.85999,570.419883 L1051.25814,569.819746 L1053.41925,574.620838 C1054.61986,577.321452 1056.54085,581.322362 1057.6214,583.622886 C1059.06214,586.523545 1059.30226,588.323955 1058.46183,590.124364 C1057.86152,591.624706 1057.74146,594.525365 1058.46183,597.326002 C1059.66245,602.627208 1059.66245,621.431485 1058.58189,628.032986 C1057.38128,634.334419 1059.66245,647.937513 1063.38435,658.039811 C1065.18527,662.74088 1067.46644,672.042996 1068.54699,678.844543 C1070.58804,692.547659 1071.54853,695.048228 1080.6732,710.451731 C1084.27505,716.453096 1087.15652,721.754302 1087.15652,722.154393 C1087.15652,724.254871 1084.63523,722.75453 1082.234,719.053688 C1078.15191,713.152346 1077.67167,714.152573 1080.6732,721.854325 C1082.234,725.555167 1083.55468,729.356031 1083.55468,730.356259 C1083.55468,734.0571 1080.6732,731.356486 1078.39203,725.655189 C1075.87074,719.353756 1074.18988,718.553574 1076.23093,724.754985 C1076.9513,726.855462 1077.5516,730.05619 1077.5516,731.8566 C1077.5516,737.357851 1074.79019,735.057328 1072.98927,727.955713 C1070.34792,718.05346 1068.66706,718.05346 1069.74761,727.955713 C1070.34792,734.557214 1070.22785,736.157578 1069.02724,735.85751 C1067.46644,735.457419 1067.10626,734.357168 1064.4649,723.85478 C1063.62447,720.654052 1061.94361,717.053233 1060.743,715.85296 L1058.58189,713.552437 L1056.18066,718.153483 C1054.85999,720.654052 1052.939,723.054598 1051.85845,723.354666 C1050.7779,723.754757 1049.93747,723.754757 1049.93747,723.454689 C1049.93747,721.754302 1055.34023,706.05073 1056.66091,703.85023 C1057.6214,702.349889 1058.34177,699.84932 1058.34177,698.148933 C1058.34177,695.248274 1053.77943,680.044816 1051.37821,675.043678 C1049.93747,671.942973 1039.61218,637.435125 1038.17144,630.533555 C1037.21095,626.132554 1034.92979,618.33078 1033.48905,614.029801 C1033.0088,612.829528 1032.76868,612.829528 1031.68813,614.32987 C1030.96776,615.630165 1030.96776,617.63062 1031.80819,620.831348 C1033.24893,625.732463 1032.64862,635.034579 1030.8477,637.935238 C1029.04677,640.53583 1023.28382,644.636763 1018.24124,646.837263 C1012.35823,649.537877 1002.03295,649.237809 997.350548,646.337149 C990.747168,642.236217 986.905201,636.334874 986.304894,629.233259 L985.704587,622.531735 L983.663542,626.132554 C982.462927,628.133009 980.662006,630.033441 979.701514,630.433532 C978.741022,630.7336 977.900592,631.833851 977.900592,632.934101 C977.900592,634.034351 977.060162,636.134829 976.09967,637.735193 C971.657396,644.836808 968.055552,654.138924 967.095061,661.040493 C966.494753,665.64154 964.333647,672.243041 961.692295,678.044361 C959.291066,683.245544 955.208976,692.547659 952.807747,698.549024 L948.485534,709.551527 L948.485534,729.055963 C948.365473,748.760444 946.804674,759.062788 943.683076,759.062788 C941.642031,759.062788 939.240802,754.861832 939.600986,751.961172 C939.721048,750.660877 939.721048,746.860012 939.600986,743.559261 L939.240802,737.557896 L937.43988,743.85933 C936.479388,747.260103 935.278774,750.06074 934.798528,750.06074 C932.997606,750.06074 933.35779,719.953893 935.158712,715.052778 C936.119204,712.552209 937.199757,706.05073 937.680003,700.549479 C939.12074,681.545157 944.763629,658.339879 953.528116,634.434442 C957.250021,624.432167 957.490144,622.831803 956.289529,619.331007 C954.848792,615.43012 954.968853,615.330097 960.971926,608.628573 C964.333647,604.927731 967.095061,601.326912 967.095061,600.626753 C967.095061,597.426025 951.126886,603.027299 946.804674,607.628345 C945.363936,609.128687 944.523506,610.629028 945.003752,610.929096 C945.363936,611.229164 946.444489,610.629028 947.404981,609.6288 C949.686149,606.928186 949.686149,609.428755 947.28492,615.030029 C945.123813,620.031166 944.88369,625.63244 946.804674,626.632668 C947.645104,627.032759 947.885227,628.5331 947.28492,630.933646 C946.804674,632.934101 946.204367,637.535147 946.084305,641.135966 C945.604059,656.53947 929.155639,668.642222 915.22851,663.941153 C901.781626,659.440129 897.459414,654.238946 897.459414,642.636308 C897.459414,638.235307 896.859106,634.834533 896.138738,634.434442 C894.097693,633.434215 895.658492,624.932281 898.179783,623.331917 C902.141811,620.931371 898.900151,620.931371 894.698,623.331917 C890.495849,625.732463 878.849887,628.733145 864.802697,631.033669 C860.96073,631.633805 857.839132,632.53401 857.839132,632.934101 C857.839132,633.434215 858.679562,635.734738 859.760115,638.135284 C863.602082,647.137331 867.203926,660.54038 866.363496,662.540835 C865.88325,663.641085 865.88325,665.64154 866.363496,667.041858 C868.164417,672.343064 867.444049,676.744065 863.602082,683.145521 C860.000238,688.94684 859.159808,689.647 854.35735,690.74725 C851.355813,691.447409 848.474338,692.447637 847.753969,693.047773 C847.153662,693.547887 843.191634,694.048001 838.989483,694.048001 C831.785795,694.048001 831.185488,693.847955 826.503091,689.947068 C820.620079,685.045953 816.177805,677.444224 815.097252,670.342609 C814.737068,667.441949 813.896638,664.741335 813.29633,664.441267 C811.135224,663.441039 812.215777,658.439902 815.817621,653.038673 C819.05928,647.937513 820.740141,640.035716 818.458973,640.035716 C817.978727,640.035716 812.575962,643.136421 806.332766,646.937286 C791.445145,656.239401 783.64115,663.541062 777.758138,674.043451 C775.236847,678.74452 769.954143,686.846363 766.232238,692.147568 C756.987506,705.250548 751.224555,715.552892 750.264064,720.554029 C749.903879,723.154621 750.384125,728.255781 751.58474,733.356941 L753.625785,741.858875 L749.183511,748.460376 C745.101421,754.561764 744.501114,755.061878 740.779208,755.061878 C735.256381,755.061878 729.37337,750.860922 729.37337,746.960035 C729.37337,745.059603 729.973677,744.059375 731.174292,744.059375 C732.615029,744.059375 732.975214,742.559034 732.975214,736.657692 C732.975214,731.156441 733.935705,726.855462 736.577057,720.053915 C738.618102,715.052778 740.178901,710.351709 740.178901,709.651549 C740.178901,705.150526 755.426707,663.641085 762.630394,648.53765 C767.432853,638.435352 777.638077,623.732008 781.840228,621.031394 L784.48158,619.331007 L781.600105,608.428527 C779.919244,602.427162 778.598568,597.125957 778.598568,596.725866 C778.598568,595.125502 767.793037,597.025934 761.309718,599.726548 C755.186584,602.227117 750.023941,606.528095 751.58474,607.828391 C752.064986,608.228482 753.145539,607.628345 754.10603,606.628118 C756.387198,603.927504 756.267137,605.527868 753.2656,612.929551 C750.864371,618.930916 750.74431,619.331007 752.665293,622.931826 C754.226092,625.832486 754.466215,627.232804 753.505723,629.433305 C752.785354,630.933646 752.185047,634.834533 752.185047,638.135284 C752.185047,645.436945 748.943388,651.638355 742.58013,656.439447 C733.575521,663.140971 724.45085,663.541062 713.76538,657.539697 L707.762307,654.138924 L708.482676,659.84022 C709.68329,668.842268 713.525257,684.745885 715.206117,687.746567 C716.166609,689.546977 717.84747,690.647227 719.768453,690.847273 C728.052694,691.647455 730.453923,693.847955 731.89466,702.049821 C732.374906,704.550389 730.453923,707.050958 728.172755,707.050958 C726.972141,707.050958 725.771526,708.051185 725.411342,709.251458 C724.690973,711.251913 724.45085,711.151891 718.928023,707.251003 C707.762307,699.249184 706.921877,698.248956 704.640709,691.247364 C702.23948,683.545612 699.838251,679.044588 691.794133,666.941836 C686.63149,659.040038 685.670998,658.239856 681.829032,657.539697 C679.427802,657.239629 677.266696,657.139606 676.906512,657.339652 C676.666389,657.63972 675.10559,664.241221 673.544791,672.143019 C670.783377,685.946158 666.10098,700.249411 662.859321,704.550389 C662.018891,705.650639 660.938337,709.051413 660.578153,712.052095 C659.617661,719.253733 656.376002,733.957077 655.41551,735.15735 C653.73465,737.457874 652.654097,735.557441 652.293912,729.856145 L651.933728,723.554712 L649.292376,728.555849 C645.330348,735.957532 642.20875,740.458556 640.647951,740.858647 C638.366783,741.458784 639.207213,736.257601 642.448873,729.956168 C644.129733,726.555394 645.210286,723.654734 644.970163,723.354666 C644.609979,723.154621 642.448873,726.05528 639.927582,729.756122 C635.245185,736.857737 632.483771,740.058465 630.68285,740.058465 C629.001989,740.058465 629.602296,737.157805 632.123587,733.056873 C633.444263,730.856372 634.524816,728.855917 634.524816,728.455826 C634.524816,728.055735 633.444263,728.555849 632.123587,729.556077 C628.28162,732.456736 629.122051,729.556077 635.005062,719.553802 C637.886537,714.652687 640.647951,709.551527 641.128197,708.251231 C641.848565,706.150753 641.608442,705.950708 638.486844,706.250776 C636.085615,706.450821 635.005062,707.150981 634.764939,708.851367 C634.164632,711.952073 632.243649,711.551982 630.442727,707.951163 C629.602296,706.250776 627.561252,704.350344 626.000453,703.650185 C624.439654,703.050048 622.998916,701.64973 622.758793,700.549479 C622.51867,699.449229 620.717748,697.348751 618.796765,695.84841 C616.875782,694.348069 615.314983,692.447637 615.314983,691.647455 C615.314983,690.847273 610.99277,682.645407 605.710066,673.343292 C594.904534,654.639037 591.062568,644.436717 592.023059,637.235079 L592.623367,632.53401 L590.342199,636.034806 C587.94097,639.735648 577.855807,649.037764 576.295008,649.037764 C575.814762,649.037764 573.293472,650.638127 570.772181,652.53856 C568.130829,654.438992 565.009231,656.039356 563.688555,656.039356 C562.367879,656.039356 561.287326,656.639492 561.287326,657.339652 C561.287326,659.440129 568.491013,668.042086 572.212919,670.342609 C576.535131,672.943201 576.535131,674.343519 572.453041,677.044133 L569.091321,679.244634 L573.773717,686.646317 C576.41507,690.74725 579.176483,694.048001 580.016913,694.048001 C582.538204,694.048001 586.500232,702.449912 585.659802,706.450821 C585.299618,708.451276 584.459187,710.05164 583.978942,710.05164 C583.378634,710.05164 582.898388,710.7518 582.898388,711.551982 C582.898388,712.452186 582.057958,713.352391 581.097467,713.652459 C579.656729,714.152573 579.536668,714.552664 580.617221,715.652914 C582.538204,717.553347 581.217528,718.453551 577.735746,717.653369 C573.653656,716.853187 568.851198,711.151891 567.170337,705.350571 C565.7296,700.549479 562.608002,693.447864 559.246281,687.346476 C557.685482,684.545839 557.085175,684.245771 555.164191,685.145976 C553.363269,685.946158 552.642901,685.746112 552.162655,684.345794 C550.96204,681.64518 546.87995,673.743383 545.559274,672.042996 C544.958967,671.242814 542.197554,666.841813 539.43614,662.340789 C536.674726,657.739743 534.033374,654.038901 533.553128,654.038901 C533.192944,654.038901 532.232452,656.53947 531.392022,659.640175 L530.071346,665.341472 L534.153436,669.042313 C537.635218,672.243041 550.721917,687.746567 553.003085,691.347386 C553.483331,692.047546 554.443822,694.348069 555.284253,696.548569 C557.325297,701.849775 564.528985,710.451731 571.49255,716.053005 C579.656729,722.554484 588.541277,737.557896 590.222138,747.760217 C591.662875,756.062105 595.264719,763.563811 608.831664,786.669066 C613.033815,793.770681 616.515597,800.27216 616.515597,800.872297 C616.515597,801.572456 616.995843,802.07257 617.59615,802.07257 C618.196458,802.07257 620.237503,804.073025 622.038424,806.473571 C623.959408,808.974139 627.321129,811.774776 629.722358,812.775004 C635.605369,815.375595 635.725431,817.976187 629.722358,821.977097 L624.799838,825.177825 L631.163095,835.1801 C634.644878,840.581328 638.12666,845.082352 638.847029,845.082352 C643.649487,845.082352 651.693605,860.585878 647.851638,862.48631 C647.371392,862.786378 647.13127,864.186697 647.371392,865.587015 C647.851638,867.287402 647.371392,868.28763 646.050716,868.687721 C644.970163,868.987789 644.129733,869.887994 644.129733,870.588153 C644.129733,871.288312 642.929118,872.488585 641.488381,873.38879 C638.726967,874.889131 638.726967,874.889131 641.128197,876.389472 C644.369856,878.48995 642.20875,880.190337 637.526353,879.290132 C630.202604,877.889813 622.878855,868.787743 620.83781,858.385377 C620.357564,856.084854 617.716212,849.583375 614.954798,843.882079 L609.912217,833.579736 L605.109759,833.579736 C600.667485,833.579736 600.427362,833.37969 599.46687,829.678848 C598.506378,826.078029 596.945579,822.977324 592.143121,815.575641 C591.182629,813.975277 586.980478,807.17373 582.898388,800.572228 C578.816299,793.970727 574.253963,787.269203 572.813226,785.568816 C571.372488,783.968452 567.530522,778.867292 564.408924,774.366268 C561.287326,769.765222 558.165728,765.764312 557.56542,765.464243 C556.965113,765.164175 555.644437,763.463788 554.683945,761.763402 C552.042593,756.96231 539.916386,741.758852 537.995402,740.858647 C537.034911,740.358533 535.954358,738.758169 535.474112,737.157805 C534.633682,733.857055 531.992329,731.556532 527.91024,730.75635 C525.749133,730.356259 525.148826,730.75635 524.548519,732.856827 C524.188335,734.357168 521.426921,742.358988 518.425384,750.560854 C507.739914,780.567679 500.176042,788.569498 480.606025,790.569953 C468.119633,791.870249 459.955453,787.569271 449.510106,774.266245 C439.90519,762.06347 436.543469,749.860695 439.184821,736.857737 C440.025251,732.856827 439.90519,732.056645 438.344391,732.056645 C437.263837,732.056645 436.423407,732.756804 436.423407,733.556986 C436.423407,734.357168 435.342854,735.057328 434.022178,735.057328 C431.981133,735.057328 431.74101,735.557441 432.341318,739.458329 C432.941625,742.459011 432.461379,745.259648 431.020642,748.460376 C429.21972,752.261241 428.979597,754.861832 429.699965,763.263743 C430.06015,768.96504 430.780519,779.16736 431.020642,786.06893 C431.380826,792.970499 432.461379,801.072342 433.421871,804.073025 C434.262301,807.073707 435.462916,816.475845 435.943161,824.877756 C436.303346,833.279667 437.263837,840.381283 437.744083,840.681351 C438.344391,840.981419 438.824636,843.481988 438.824636,846.282625 C438.824636,848.983239 439.665067,852.784103 440.74562,854.684536 C442.306419,857.38515 442.42648,858.385377 441.225866,859.58565 C440.385435,860.385832 438.944698,861.085992 438.104268,861.085992 C436.063223,861.085992 436.063223,862.786378 437.744083,872.588608 C438.464452,876.789563 440.025251,880.990519 441.105804,882.090769 C442.186357,883.090996 448.18943,885.291497 454.432626,886.991884 L465.838465,889.992566 L465.478281,898.294454 C465.358219,902.795478 464.63785,906.996433 464.037543,907.496547 C463.317174,908.096684 462.836928,909.79707 462.836928,911.297412 C462.836928,914.998253 460.195576,914.898231 456.593733,910.997343 Z M641.744133,691.904025 C641.988962,691.200227 642.111376,681.246513 641.866548,669.78466 L641.499305,648.871806 L636.113074,648.871806 C633.17513,648.871806 627.911313,648.369093 624.483712,647.765837 C621.178525,647.162582 617.873338,646.860954 617.38368,647.062039 C615.792294,647.564752 619.464724,665.762957 622.647497,673.70582 C624.361297,677.62698 625.707855,681.849768 625.707855,683.056279 C625.707855,685.670386 630.482014,689.692089 635.868245,691.602398 C640.764819,693.412164 641.254476,693.412164 641.744133,691.904025 Z M702.350142,631.528871 C701.624703,625.352737 701.866516,623.659281 703.559207,621.46775 C704.647366,620.073139 705.372805,618.080838 705.010085,617.084687 C704.647366,615.690076 704.889179,615.391231 706.340057,615.789691 C707.790935,616.287767 708.032748,615.889306 707.428215,613.299315 C706.944589,611.506244 707.186402,609.912403 707.911841,609.513943 C708.63728,609.115482 708.395467,608.218947 707.065496,607.023566 C705.130992,605.230495 705.130992,605.13088 706.944589,605.72857 C708.274561,606.127031 709,605.828185 709,604.832035 C709,603.835884 706.340057,602.939349 699.932012,601.943198 C690.138586,600.349357 690.380399,600.150127 691.589464,606.425876 C692.677622,611.406629 694.853939,611.207399 694.249407,606.127031 C693.765781,601.843583 694.853939,600.947047 696.90935,604.035114 C698.602041,606.724721 698.481134,610.510093 696.425724,614.39508 C694.974846,617.283917 695.216659,618.678528 698.481134,628.341189 C700.415638,634.218477 702.229236,639 702.591955,639 C702.954675,639 702.833768,635.613088 702.350142,631.528871 Z M594.77717,616.423207 C595.233553,612.514326 595.119457,612 593.179829,612 C590.669723,612 590.327436,614.468767 592.152968,618.789109 C593.636212,622.183663 593.9785,621.875067 594.77717,616.423207 Z M390.92985,588.618946 C396,587.52211 396,587.52211 396,582.835627 C396,578.149145 393.706361,570.770427 390.688414,565.186533 C389.722671,563.591135 388.63621,559.104077 388.153339,555.414718 C387.54975,550.429099 386.94616,548.733988 385.738982,549.033125 C384.893957,549.332262 381.755292,549.830824 378.737346,550.229674 C375.719399,550.628523 372.339299,551.426223 371.252838,552.124209 C369.562788,553.121333 369.562788,553.619895 371.373556,557.708104 C374.995092,566.083945 378.858064,580.04368 377.892321,582.037928 C377.409449,583.134764 377.530167,585.727287 378.254474,587.721534 C379.220217,591.211468 379.582371,591.410893 382.479599,590.613194 C384.290367,590.114632 388.032621,589.21722 390.92985,588.618946 Z M323.850114,579.790933 C323.850114,579.085644 325.390629,575.96222 327.405148,572.939552 C330.841681,567.49875 332.263695,559.337547 329.65667,560.042836 C326.694141,560.848881 312.118501,570.521418 312,571.730485 C312,573.040308 321.36159,581 323.020606,581 C323.494611,581 323.850114,580.395466 323.850114,579.790933 Z M1052.10293,558.759634 C1049.74751,556.678085 1049.39419,558.967789 1050.92522,564.483895 L1052.57402,570 L1052.92733,564.900204 C1053.16287,562.090113 1052.80956,559.384099 1052.10293,558.759634 Z M1293,563.5 C1293,562.7 1292.52239,562 1291.92537,562 C1291.32836,562 1290.61194,562.7 1290.13433,563.5 C1289.77612,564.4 1290.13433,565 1291.20896,565 C1292.16418,565 1293,564.3 1293,563.5 Z M512.753639,530.368123 C513.227174,527.625575 512.990407,523.257814 512.280103,520.616842 C510.977879,515.436474 507.781513,508.42774 507.071209,509.037196 C506.597673,509.443499 508.6102,530.266547 509.438888,534.12643 C510.267576,537.78316 511.924951,535.853219 512.753639,530.368123 Z M182.602088,512.069301 C183.634338,510.768358 182.831477,510.303736 178.129002,509.374491 C174.458778,508.72402 174,508.816944 174,510.489585 C174,511.41883 174.344084,512.069301 174.917556,511.883452 C175.376334,511.604679 176.752668,511.790528 178.014308,512.25515 C181.225754,513.27732 181.799226,513.27732 182.602088,512.069301 Z M174,501.037476 C174,499.417489 173.598021,498 172.995054,498 C171.889613,498 171.588129,502.353715 172.69357,503.366207 C173.799011,504.581198 174,504.176201 174,501.037476 Z" id="crowd" transform="translate(720.000000, 698.500000) scale(1, -1) translate(-720.000000, -698.500000) "></path>
        </g>
    </g>
</svg>