<svg viewBox="0 0 224 224" version="1.1" xmlns="http://www.w3.org/2000/svg" xmlns:xlink="http://www.w3.org/1999/xlink">
    <defs>
        <path d="M85,69.5 C86.6169558,68.0714214 88.3884469,66.7142921 90.3145266,65.4285714 C92.2406063,64.1428507 94.3212167,63.0238143 96.5564202,62.0714286 C98.7916238,61.1190429 101.217021,60.3690504 103.832685,59.8214286 C106.448349,59.2738068 109.277979,59 112.32166,59 C116.459165,59 120.228042,59.5714229 123.628405,60.7142857 C127.028768,61.8571486 129.941622,63.4880846 132.367056,65.6071429 C134.792489,67.7262011 136.670983,70.2856993 138.002594,73.2857143 C139.334205,76.2857293 140,79.6428386 140,83.3571429 C140,86.9762086 139.476875,90.1071296 138.43061,92.75 C137.384344,95.3928704 136.076532,97.6904664 134.507134,99.6428571 C132.937735,101.595248 131.213801,103.285707 129.335279,104.714286 C127.456757,106.142864 125.685266,107.488089 124.020752,108.75 C122.356239,110.011911 120.917645,111.249994 119.704929,112.464286 C118.492212,113.678577 117.76697,115.047611 117.529183,116.571429 L115.888457,127 L103.832685,127 L102.619974,115.357143 C102.334629,113.119036 102.655637,111.15477 103.583009,109.464286 C104.510381,107.773801 105.746858,106.226197 107.292477,104.821429 C108.838097,103.41666 110.562031,102.05953 112.464332,100.75 C114.366633,99.4404696 116.150013,98.0119125 117.814527,96.4642857 C119.47904,94.9166589 120.870077,93.1785811 121.987678,91.25 C123.10528,89.3214189 123.664073,87.0238229 123.664073,84.3571429 C123.664073,82.6428486 123.343064,81.1071496 122.701038,79.75 C122.059011,78.3928504 121.167321,77.2261954 120.02594,76.25 C118.88456,75.2738046 117.517302,74.5238121 115.924125,74 C114.330948,73.4761879 112.607013,73.2142857 110.75227,73.2142857 C108.041491,73.2142857 105.746875,73.5119018 103.868353,74.1071429 C101.989831,74.7023839 100.396678,75.3690439 99.0888457,76.1071429 C97.7810138,76.8452418 96.675318,77.5119018 95.771725,78.1071429 C94.8681321,78.7023839 94.0596663,79 93.3463035,79 C91.6342327,79 90.3977556,78.2857214 89.6368353,76.8571429 L85,69.5 Z M99,153.534884 C99,152.093016 99.278325,150.720937 99.8349835,149.418605 C100.391642,148.116273 101.154011,147 102.122112,146.069767 C103.090214,145.13953 104.251918,144.395352 105.607261,143.837209 C106.962603,143.279067 108.414734,143 109.963696,143 C111.512659,143 112.952689,143.279067 114.283828,143.837209 C115.614968,144.395352 116.776673,145.13953 117.768977,146.069767 C118.761281,147 119.547852,148.116273 120.128713,149.418605 C120.709574,150.720937 121,152.093016 121,153.534884 C121,155.023263 120.709574,156.40697 120.128713,157.686047 C119.547852,158.965123 118.761281,160.069763 117.768977,161 C116.776673,161.930237 115.614968,162.662788 114.283828,163.197674 C112.952689,163.732561 111.512659,164 109.963696,164 C108.414734,164 106.962603,163.732561 105.607261,163.197674 C104.251918,162.662788 103.090214,161.930237 102.122112,161 C101.154011,160.069763 100.391642,158.965123 99.8349835,157.686047 C99.278325,156.40697 99,155.023263 99,153.534884 Z" id="path-1"></path>
        <filter x="-12.7%" y="-4.8%" width="125.5%" height="113.3%" filterUnits="objectBoundingBox" id="filter-2">
            <feOffset dx="0" dy="2" in="SourceAlpha" result="shadowOffsetOuter1"></feOffset>
            <feGaussianBlur stdDeviation="2" in="shadowOffsetOuter1" result="shadowBlurOuter1"></feGaussianBlur>
            <feColorMatrix values="0 0 0 0 0   0 0 0 0 0   0 0 0 0 0  0 0 0 0.5 0" type="matrix" in="shadowBlurOuter1"></feColorMatrix>
        </filter>
    </defs>
    <g id="defaultavatar" stroke="none" stroke-width="1" fill="none" fill-rule="evenodd">
        <g id="shape" opacity="0.599391" transform="translate(28.000000, 35.000000)" fill="#000000">
            <path d="M84,121.496296 C120.346154,120.834568 140.134615,120.834568 143.365385,121.496296 C154.269231,123.481481 163.961538,131.422222 166.384615,138.37037 C168,143.002469 168.403846,150.281481 167.596154,160.207407 C156.288462,169.471605 144.576923,176.419753 132.461538,181.051852 C120.346154,185.683951 104.192308,188 84,188 C63.8076923,188 47.6538462,185.683951 35.5384615,181.051852 C23.4230769,176.419753 11.7115385,169.471605 0.403846154,160.207407 C-0.403846154,150.281481 -1.11022302e-15,143.002469 1.61538462,138.37037 C4.03846154,131.422222 13.7307692,123.481481 24.6346154,121.496296 C27.8653846,120.834568 47.6538462,120.834568 84,121.496296 Z" id="Combined-Shape"></path>
            <circle id="Oval" cx="84" cy="56" r="56"></circle>
        </g>
        <g id="?" fill-rule="nonzero">
            <use fill="black" fill-opacity="1" filter="url(#filter-2)" xlink:href="#path-1"></use>
            <use fill="#FFFFFF" xlink:href="#path-1"></use>
        </g>
    </g>
</svg>