<svg viewBox="0 0 142 126" version="1.1" xmlns="http://www.w3.org/2000/svg" xmlns:xlink="http://www.w3.org/1999/xlink">
    <defs>
        <linearGradient x1="50%" y1="-2.48949813e-15%" x2="50%" y2="79.6852941%" id="linearGradient-1">
            <stop stop-color="#00F5FF" offset="0%"></stop>
            <stop stop-color="#D7146C" offset="100%"></stop>
        </linearGradient>
    </defs>
    <g id="emoji" stroke="none" stroke-width="1" fill="none" fill-rule="evenodd">
        <g id="Group" transform="translate(12.000000, 16.000000)">
            <g id="emoji" transform="translate(7.000000, 0.000000)">
                <path d="M49.3058117,94 C51.0700888,94 51.9403659,94 51.9166428,94 C86.6388809,94 104,86.7757014 104,72.3271042 C103.975063,59.0761693 103.172051,49.9182673 101.590963,44.8533983 C92.4706851,15.6374265 76.8384269,0.686293673 54.6941883,0 L51.9166428,0 C51.1963831,0 50.326106,0 49.3058117,0 C24.7931341,0 7.59330281,22.0914392 2.40903708,44.8533983 C0.483269287,53.3086455 0,63.3991974 0,72.3271042 C0,89.6365127 31.6645832,94 49.3058117,94 Z" id="body" fill="url(#linearGradient-1)" transform="translate(52.000000, 47.000000) scale(-1, 1) translate(-52.000000, -47.000000) "></path>
                <ellipse id="eye-left" fill="#FFFFFF" cx="35" cy="33.5" rx="12" ry="14.5"></ellipse>
                <ellipse id="pupil-left" fill="#2F2F2F" cx="35.5" cy="34" rx="5.5" ry="6"></ellipse>
                <ellipse id="eye-right" fill="#FFFFFF" cx="67" cy="33.5" rx="12" ry="14.5"></ellipse>
                <ellipse id="pupil-right" fill="#2F2F2F" cx="68.5" cy="34" rx="5.5" ry="6"></ellipse>
                <path d="M51.6220876,77.6145952 C59.29154,77.6145952 71.0395174,86.3292064 73,75.7945947 C73,60.2109493 58.8005399,54 51.6220876,54 C44.4436353,54 29,60.4672956 29,75.7945947 C30.402329,86.3292064 43.0340925,77.6145952 51.6220876,77.6145952 Z" id="mouth" fill="#0C1652"></path>
            </g>
        </g>
    </g>
</svg>