<svg viewBox="0 0 531 90" version="1.1" xmlns="http://www.w3.org/2000/svg" xmlns:xlink="http://www.w3.org/1999/xlink">
    <!-- Generator: Sketch 55.2 (78181) - https://sketchapp.com -->
    <title>Artboard</title>
    <desc>Created with Sketch.</desc>
    <defs>
        <path d="M379.089,47.048 L385.923,47.048 C387.606008,47.048 389.123243,46.848252 390.47475,46.44875 C391.826257,46.049248 392.973745,45.4712538 393.91725,44.71475 C394.860755,43.9582462 395.583247,43.0445054 396.08475,41.9735 C396.586253,40.9024946 396.837,39.6955067 396.837,38.3525 C396.837,35.5814861 395.936009,33.5415065 394.134,32.2325 C392.331991,30.9234935 389.731017,30.269 386.331,30.269 L379.089,30.269 L379.089,47.048 Z M401.478,65 L400.3305,65 C400.143499,65 399.977751,64.9745003 399.83325,64.9235 C399.688749,64.8724997 399.548501,64.7535009 399.4125,64.5665 L386.7645,49.088 C386.628499,48.9009991 386.488251,48.7480006 386.34375,48.629 C386.199249,48.5099994 386.037751,48.4122504 385.85925,48.33575 C385.680749,48.2592496 385.468251,48.2040002 385.22175,48.17 C384.975249,48.1359998 384.673502,48.119 384.3165,48.119 L379.089,48.119 L379.089,65 L377.6865,65 L377.6865,29.147 L386.331,29.147 C390.224019,29.147 393.18199,29.9034924 395.205,31.4165 C397.22801,32.9295076 398.2395,35.2244846 398.2395,38.3015 C398.2395,39.7125071 397.976003,40.9917443 397.449,42.13925 C396.921997,43.2867557 396.182505,44.2812458 395.2305,45.12275 C394.278495,45.9642542 393.122507,46.6357475 391.7625,47.13725 C390.402493,47.6387525 388.898008,47.9404995 387.249,48.0425 C387.555002,48.2125008 387.852499,48.4674983 388.1415,48.8075 L401.478,65 Z M426.2555,52.148 L418.0445,32.1815 C417.857499,31.7224977 417.679001,31.2125028 417.509,30.6515 C417.355999,31.2125028 417.177501,31.7224977 416.9735,32.1815 L408.7625,52.148 L426.2555,52.148 Z M433.0385,65 L431.942,65 C431.686999,65 431.500001,64.8555014 431.381,64.5665 L426.7145,53.219 L408.3035,53.219 L403.637,64.5665 C403.552,64.8555014 403.356502,65 403.0505,65 L402.005,65 L416.846,29.147 L418.1975,29.147 L433.0385,65 Z M467.9905,47.0735 C467.9905,49.878514 467.582504,52.3902389 466.7665,54.60875 C465.950496,56.8272611 464.803007,58.7057423 463.324,60.24425 C461.844993,61.7827577 460.07701,62.9599959 458.02,63.776 C455.96299,64.5920041 453.693512,65 451.2115,65 L438.283,65 L438.283,29.147 L451.2115,29.147 C453.693512,29.147 455.96299,29.5549959 458.02,30.371 C460.07701,31.1870041 461.844993,32.3642423 463.324,33.90275 C464.803007,35.4412577 465.950496,37.3197389 466.7665,39.53825 C467.582504,41.7567611 467.9905,44.268486 467.9905,47.0735 Z M466.5115,47.0735 C466.5115,44.4044867 466.141754,42.0287604 465.40225,39.94625 C464.662746,37.8637396 463.617257,36.1085071 462.26575,34.6805 C460.914243,33.2524929 459.299259,32.1645037 457.42075,31.4165 C455.542241,30.6684963 453.472511,30.2945 451.2115,30.2945 L439.6855,30.2945 L439.6855,63.8525 L451.2115,63.8525 C453.472511,63.8525 455.542241,63.4785037 457.42075,62.7305 C459.299259,61.9824963 460.914243,60.8945071 462.26575,59.4665 C463.617257,58.0384929 464.662746,56.2832604 465.40225,54.20075 C466.141754,52.1182396 466.5115,49.7425133 466.5115,47.0735 Z M477.06,65 L475.6575,65 L475.6575,29.147 L477.06,29.147 L477.06,65 Z M518.234,47.0735 C518.234,49.878514 517.826004,52.4072387 517.01,54.65975 C516.193996,56.9122613 515.046507,58.8332421 513.5675,60.42275 C512.088493,62.0122579 510.32051,63.2319957 508.2635,64.082 C506.20649,64.9320042 503.928512,65.357 501.4295,65.357 C498.964488,65.357 496.70351,64.9320042 494.6465,64.082 C492.58949,63.2319957 490.821507,62.0122579 489.3425,60.42275 C487.863493,58.8332421 486.716004,56.9122613 485.9,54.65975 C485.083996,52.4072387 484.676,49.878514 484.676,47.0735 C484.676,44.2854861 485.083996,41.7610113 485.9,39.5 C486.716004,37.2389887 487.863493,35.3137579 489.3425,33.72425 C490.821507,32.1347421 492.58949,30.9065043 494.6465,30.0395 C496.70351,29.1724957 498.964488,28.739 501.4295,28.739 C503.928512,28.739 506.20649,29.1682457 508.2635,30.02675 C510.32051,30.8852543 512.088493,32.1092421 513.5675,33.69875 C515.046507,35.2882579 516.193996,37.2134887 517.01,39.4745 C517.826004,41.7355113 518.234,44.268486 518.234,47.0735 Z M516.755,47.0735 C516.755,44.4044867 516.385254,42.0117606 515.64575,39.89525 C514.906246,37.7787394 513.860757,35.9810074 512.50925,34.502 C511.157743,33.0229926 509.542759,31.8925039 507.66425,31.1105 C505.785741,30.3284961 503.707511,29.9375 501.4295,29.9375 C499.185489,29.9375 497.124259,30.3284961 495.24575,31.1105 C493.367241,31.8925039 491.752257,33.0229926 490.40075,34.502 C489.049243,35.9810074 487.995254,37.7787394 487.23875,39.89525 C486.482246,42.0117606 486.104,44.4044867 486.104,47.0735 C486.104,49.7425133 486.482246,52.1352394 487.23875,54.25175 C487.995254,56.3682606 489.049243,58.1574927 490.40075,59.6195 C491.752257,61.0815073 493.367241,62.2034961 495.24575,62.9855 C497.124259,63.7675039 499.185489,64.1585 501.4295,64.1585 C503.707511,64.1585 505.785741,63.7675039 507.66425,62.9855 C509.542759,62.2034961 511.157743,61.0815073 512.50925,59.6195 C513.860757,58.1574927 514.906246,56.3682606 515.64575,54.25175 C516.385254,52.1352394 516.755,49.7425133 516.755,47.0735 Z" id="path-1"></path>
        <filter x="-5.0%" y="-13.7%" width="110.0%" height="138.2%" filterUnits="objectBoundingBox" id="filter-2">
            <feOffset dx="0" dy="2" in="SourceAlpha" result="shadowOffsetOuter1"></feOffset>
            <feGaussianBlur stdDeviation="2" in="shadowOffsetOuter1" result="shadowBlurOuter1"></feGaussianBlur>
            <feColorMatrix values="0 0 0 0 0   0 0 0 0 0   0 0 0 0 0  0 0 0 0.5 0" type="matrix" in="shadowBlurOuter1"></feColorMatrix>
        </filter>
        <path d="M164.449997,27.0100007 C167.810014,27.0100007 170.90165,27.8149926 173.724997,29.4250006 C176.548345,31.0350086 178.788322,33.3566521 180.444997,36.3900005 C182.101672,39.423349 182.929997,42.9233139 182.929997,46.8900003 C182.929997,50.8566868 182.101672,54.3449851 180.444997,57.3550001 C178.788322,60.3650151 176.548345,62.674992 173.724997,64.285 C170.90165,65.8950081 167.810014,66.7 164.449997,66.7 C160.20331,66.7 156.960009,65.6033443 154.719998,63.41 L154.719998,79.5799998 L138.899998,79.5799998 L138.899998,27.7100007 L153.949998,27.7100007 L153.949998,30.8600006 C156.236676,28.2933211 159.736641,27.0100007 164.449997,27.0100007 Z M160.669998,54.3800002 C162.490007,54.3800002 163.983325,53.7266734 165.149997,52.4200002 C166.31667,51.1133271 166.899997,49.2700122 166.899997,46.8900003 C166.899997,44.5099885 166.31667,42.655007 165.149997,41.3250004 C163.983325,39.9949938 162.490007,39.3300005 160.669998,39.3300005 C158.849988,39.3300005 157.35667,39.9949938 156.189998,41.3250004 C155.023325,42.655007 154.439998,44.5099885 154.439998,46.8900003 C154.439998,49.2700122 155.023325,51.1133271 156.189998,52.4200002 C157.35667,53.7266734 158.849988,54.3800002 160.669998,54.3800002 Z M205.049997,27.0100007 C211.77003,27.0100007 216.903312,28.5149856 220.449997,31.5250006 C223.996681,34.5350156 225.769996,39.1666359 225.769996,45.4200004 L225.769996,66 L211.069997,66 L211.069997,60.9600001 C209.249988,64.7866858 205.633357,66.7 200.219997,66.7 C197.186648,66.7 194.608341,66.1750052 192.484997,65.125 C190.361653,64.0749948 188.751669,62.6516757 187.654997,60.8550001 C186.558325,59.0583245 186.009997,57.0400114 186.009997,54.8000002 C186.009997,51.0199814 187.456649,48.1500101 190.349997,46.1900003 C193.243345,44.2299906 197.629967,43.2500004 203.509997,43.2500004 L209.879997,43.2500004 C209.366661,40.2633188 206.963352,38.7700005 202.669997,38.7700005 C200.943322,38.7700005 199.193339,39.0383311 197.419997,39.5750005 C195.646655,40.1116698 194.130003,40.8466624 192.869997,41.7800004 L187.829997,31.3500006 C190.023341,29.9966605 192.671648,28.9350045 195.774997,28.1650006 C198.878346,27.3949968 201.969981,27.0100007 205.049997,27.0100007 Z M204.979997,57.1800002 C206.100002,57.1800002 207.103326,56.8766699 207.989997,56.2700002 C208.876668,55.6633305 209.529995,54.7533396 209.949997,53.5400002 L209.949997,50.8800003 L206.029997,50.8800003 C202.809981,50.8800003 201.199997,51.9533228 201.199997,54.1000002 C201.199997,54.9866713 201.538327,55.7216639 202.214997,56.3050002 C202.891667,56.8883364 203.813324,57.1800002 204.979997,57.1800002 Z M259.229996,27.0100007 C263.943353,27.0100007 267.734981,28.4333197 270.604996,31.2800006 C273.47501,34.1266814 274.909996,38.4199718 274.909996,44.1600004 L274.909996,66 L259.089996,66 L259.089996,46.8900003 C259.089996,42.5033118 257.526678,40.3100004 254.399996,40.3100004 C252.626654,40.3100004 251.191668,40.9283276 250.094996,42.1650004 C248.998324,43.4016732 248.449996,45.3499871 248.449996,48.0100007 L248.449996,66 L232.629996,66 L232.629996,27.7100007 L247.679996,27.7100007 L247.679996,31.4900006 C249.173337,29.9966598 250.899986,28.876671 252.859996,28.1300006 C254.820006,27.3833303 256.943318,27.0100007 259.229996,27.0100007 Z M281.769995,27.7100007 L297.589995,27.7100007 L297.589995,66 L281.769995,66 L281.769995,27.7100007 Z M289.679995,24.6300007 C286.833314,24.6300007 284.535004,23.871675 282.784995,22.3550007 C281.034987,20.8383265 280.159995,18.9133458 280.159995,16.5800008 C280.159995,14.2466559 281.034987,12.3216752 282.784995,10.8050009 C284.535004,9.28832672 286.833314,8.53000098 289.679995,8.53000098 C292.573343,8.53000098 294.88332,9.25332707 296.609995,10.7000009 C298.33667,12.1466748 299.199995,14.0133228 299.199995,16.3000008 C299.199995,18.7266796 298.33667,20.7216596 296.609995,22.2850007 C294.88332,23.8483419 292.573343,24.6300007 289.679995,24.6300007 Z M325.169995,66.7 C320.829973,66.7 316.945012,65.8600084 313.514995,64.18 C310.084978,62.4999917 307.401671,60.1433486 305.464995,57.1100002 C303.528319,54.0766517 302.559995,50.6466861 302.559995,46.8200003 C302.559995,42.9933146 303.528319,39.5750155 305.464995,36.5650005 C307.401671,33.5549855 310.084978,31.210009 313.514995,29.5300006 C316.945012,27.8499922 320.829973,27.0100007 325.169995,27.0100007 C329.836685,27.0100007 333.826645,28.0133239 337.139995,30.0200006 C340.453344,32.0266773 342.739988,34.8033161 343.999994,38.3500005 L331.749995,44.3700004 C330.256654,41.0099836 328.040009,39.3300005 325.099995,39.3300005 C323.233319,39.3300005 321.681668,39.9833272 320.444995,41.2900004 C319.208322,42.5966736 318.589995,44.4399885 318.589995,46.8200003 C318.589995,49.2466791 319.208322,51.1133271 320.444995,52.4200002 C321.681668,53.7266734 323.233319,54.3800002 325.099995,54.3800002 C328.040009,54.3800002 330.256654,52.700017 331.749995,49.3400003 L343.999994,55.3600002 C342.739988,58.9066845 340.453344,61.6833234 337.139995,63.69 C333.826645,65.6966767 329.836685,66.7 325.169995,66.7 Z M345.679994,17.0000008 L364.579994,17.0000008 L361.429994,47.2400003 L348.829994,47.2400003 L345.679994,17.0000008 Z M355.129994,66.7 C352.423314,66.7 350.20667,65.8833415 348.479994,64.25 C346.753319,62.6166586 345.889994,60.6333451 345.889994,58.3000001 C345.889994,55.9199883 346.753319,53.9483414 348.479994,52.3850002 C350.20667,50.8216591 352.423314,50.0400003 355.129994,50.0400003 C357.836674,50.0400003 360.053319,50.8216591 361.779994,52.3850002 C363.506669,53.9483414 364.369994,55.9199883 364.369994,58.3000001 C364.369994,60.6333451 363.506669,62.6166586 361.779994,64.25 C360.053319,65.8833415 357.836674,66.7 355.129994,66.7 Z" id="path-3"></path>
        <filter x="-3.1%" y="-7.0%" width="106.2%" height="119.7%" filterUnits="objectBoundingBox" id="filter-4">
            <feOffset dx="0" dy="2" in="SourceAlpha" result="shadowOffsetOuter1"></feOffset>
            <feGaussianBlur stdDeviation="2" in="shadowOffsetOuter1" result="shadowBlurOuter1"></feGaussianBlur>
            <feColorMatrix values="0 0 0 0 0   0 0 0 0 0   0 0 0 0 0  0 0 0 0.5 0" type="matrix" in="shadowBlurOuter1"></feColorMatrix>
        </filter>
        <filter x="-10.1%" y="-20.0%" width="120.2%" height="137.1%" filterUnits="objectBoundingBox" id="filter-5">
            <feOffset dx="0" dy="2" in="SourceAlpha" result="shadowOffsetOuter1"></feOffset>
            <feGaussianBlur stdDeviation="2" in="shadowOffsetOuter1" result="shadowBlurOuter1"></feGaussianBlur>
            <feColorMatrix values="0 0 0 0 0   0 0 0 0 0   0 0 0 0 0  0 0 0 0.5 0" type="matrix" in="shadowBlurOuter1" result="shadowMatrixOuter1"></feColorMatrix>
            <feMerge>
                <feMergeNode in="shadowMatrixOuter1"></feMergeNode>
                <feMergeNode in="SourceGraphic"></feMergeNode>
            </feMerge>
        </filter>
        <linearGradient x1="50%" y1="-2.48949813e-15%" x2="50%" y2="79.6852941%" id="linearGradient-6">
            <stop stop-color="#00F5FF" offset="0%"></stop>
            <stop stop-color="#D7146C" offset="100%"></stop>
        </linearGradient>
    </defs>
    <g id="Artboard" stroke="none" stroke-width="1" fill="none" fill-rule="evenodd">
        <g id="RADIO" fill-rule="nonzero">
            <use fill="black" fill-opacity="1" filter="url(#filter-2)" xlink:href="#path-1"></use>
            <use fill="#D7146C" xlink:href="#path-1"></use>
        </g>
        <g id="panic!" fill-rule="nonzero">
            <use fill="black" fill-opacity="1" filter="url(#filter-4)" xlink:href="#path-3"></use>
            <use fill="#FFFFFF" xlink:href="#path-3"></use>
        </g>
        <g id="Group" filter="url(#filter-5)" transform="translate(12.000000, 12.000000)">
            <g id="emoji" transform="translate(20.000000, 6.000000)">
                <path d="M37.7702037,64.0001841 C39.1217099,64.0001841 39.7883766,64.0001841 39.7702037,64.0001841 C66.3688128,64.0001841 79.6681173,59.0814986 79.6681173,49.2441275 C79.6490145,40.2221884 79.0338753,33.9870032 77.8226996,30.5385718 C70.8362057,10.6467891 58.861277,0.467265122 41.8979136,7.10542736e-15 L39.7702037,7.10542736e-15 C39.2184563,7.10542736e-15 38.5517896,7.10542736e-15 37.7702037,7.10542736e-15 C18.9925222,7.10542736e-15 5.81677057,15.0410232 1.84541778,30.5385718 C0.370203406,36.2953524 -9.23705556e-14,43.1655352 -9.23705556e-14,49.2441275 C-9.23705556e-14,61.0292906 24.2563243,64.0001841 37.7702037,64.0001841 Z" id="body" fill="url(#linearGradient-6)" transform="translate(39.834059, 32.000092) scale(-1, 1) translate(-39.834059, -32.000092) "></path>
                <ellipse id="eye-left" fill="#FFFFFF" cx="27" cy="23" rx="9" ry="10"></ellipse>
                <circle id="pupil-left" fill="#2F2F2F" cx="27" cy="23" r="4"></circle>
                <ellipse id="eye-right" fill="#FFFFFF" cx="52" cy="23" rx="9" ry="10"></ellipse>
                <circle id="pupil-right" fill="#2F2F2F" cx="53" cy="23" r="4"></circle>
                <path d="M40,53.0786041 C45.9006056,53.0786041 54.9390841,59.0121711 56.4474102,51.83941 C56.4474102,41.2288845 45.5228475,37 40,37 C34.4771525,37 22.5953654,41.4034244 22.5953654,51.83941 C23.6742677,59.0121711 33.3927001,53.0786041 40,53.0786041 Z" id="mouth" fill="#0C1652"></path>
            </g>
            <g id="headphones">
                <path d="M22,63 C9.85599924,63 0,55.8319994 0,47 C0,38.1680006 9.85599924,31 22,31" id="path2443" fill="#0C1652" fill-rule="nonzero"></path>
                <path d="M97,63 C109.144001,63 119,55.8319994 119,47 C119,38.1680006 109.144001,31 97,31" id="path2448" fill="#0C1652" fill-rule="nonzero"></path>
                <path d="M101,32 C101,14.336 82.1840003,0 59,0 C35.8159997,0 17,14.336 17,32" id="path2450" stroke="#0C1652" stroke-width="2.86834026" stroke-linecap="round" stroke-linejoin="round"></path>
            </g>
        </g>
    </g>
</svg>