<svg viewBox="0 0 30 30" version="1.1" xmlns="http://www.w3.org/2000/svg" xmlns:xlink="http://www.w3.org/1999/xlink">
    <!-- Generator: Sketch 55.2 (78181) - https://sketchapp.com -->
    <title>spotify</title>
    <desc>Created with Sketch.</desc>
    <g class="spotify" stroke="none" stroke-width="1" fill="none" fill-rule="evenodd">
        <g fill-rule="nonzero">
            <path d="M14.9999086,0 C6.71580029,0 0,6.71547645 0,14.9997867 C0,23.2840969 6.71580029,30 14.9999086,30 C23.2842606,30 30,23.2840969 30,14.9997867 C30,6.71547645 23.2841997,0 14.9999086,0 Z M20.6184991,21.5625 C20.3731095,21.5625 20.2053638,21.4873464 19.9760087,21.3639421 C17.7758891,20.1887144 15.033063,19.5710936 12.1218129,19.5710936 C10.4976405,19.5710936 8.86298403,19.7548387 7.33403195,20.0357933 C7.08549706,20.0834994 6.77263913,20.1684556 6.5858371,20.1684556 C6.00939651,20.1684556 5.625,19.76377 5.625,19.3260821 C5.625,18.7625392 5.99293031,18.4825105 6.45071553,18.4051785 C8.32551963,18.0279402 10.1926765,17.8125 12.1320503,17.8125 C15.4534755,17.8125 18.4138158,18.4854512 20.9612059,19.8335321 C21.3402987,20.0290948 21.5625,20.228524 21.5625,20.7244287 C21.5625,21.2076444 21.1177274,21.5625 20.6184991,21.5625 Z M22.296069,17.8125 C21.9782511,17.8125 21.7781347,17.6923191 21.5623684,17.5747024 C19.1798946,16.2502601 15.8778851,15.3703087 12.261985,15.3703087 C10.4073233,15.3703087 8.80674928,15.6133461 7.48174439,15.9441222 C7.19623788,16.0175909 7.03604957,16.0967452 6.76904922,16.0967452 C6.13918544,16.0967452 5.625,15.6159103 5.625,15.0211376 C5.625,14.4377921 5.92687047,14.0361115 6.53596689,13.8752386 C8.182479,13.4517069 9.8635637,13.125 12.3106603,13.125 C16.1444094,13.125 19.8530187,14.0194445 22.7686602,15.6539267 C23.2574964,15.9168084 23.4375,16.2497584 23.4375,16.7383416 C23.4375,17.3325569 22.9325974,17.8125 22.296069,17.8125 Z M23.8845329,13.125 C23.5763434,13.125 23.3933732,13.0512506 23.1044956,12.8955169 C20.3646168,11.2781758 16.1126353,10.3873696 12.0003877,10.3873696 C9.94773884,10.3873696 7.8628626,10.5928751 5.95314572,11.1029451 C5.73321247,11.1574398 5.45534377,11.2659447 5.17692155,11.2659447 C4.36945407,11.2659447 3.75,10.6370763 3.75,9.84212021 C3.75,9.03208727 4.25979496,8.57748065 4.8098126,8.41750853 C6.96763092,7.79166756 9.37619529,7.5 11.9947295,7.5 C16.4397061,7.5 21.1163014,8.40013079 24.5324627,10.3754413 C24.9928095,10.6321718 25.3125,11.0193866 25.3125,11.7288467 C25.3125,12.5411805 24.6490716,13.125 23.8845329,13.125 Z"></path>
        </g>
    </g>
</svg>