<svg viewBox="0 0 30 30" version="1.1" xmlns="http://www.w3.org/2000/svg" xmlns:xlink="http://www.w3.org/1999/xlink">
    <!-- Generator: Sketch 55.2 (78181) - https://sketchapp.com -->
    <title>youtube</title>
    <desc>Created with Sketch.</desc>
    <g class="youtube" stroke="none" stroke-width="1" fill="none" fill-rule="evenodd">
        <path d="M0.368813953,10.6433952 C0.551953488,7.72153237 2.75548837,5.36116092 5.58755814,5.04955576 C8.52511628,4.74547729 11.6472791,4.58139535 14.8837209,4.58139535 C18.1201628,4.58139535 21.2423256,4.74547729 24.1798837,5.0510611 C27.0119535,5.36116092 29.2154884,7.72153237 29.3986279,10.6433952 C29.488,12.0824993 29.5348837,13.5532154 29.5348837,15.0465116 C29.5348837,16.5398079 29.488,18.010524 29.3986279,19.449628 C29.2154884,22.3714909 27.0119535,24.7318623 24.1798837,25.0434675 C21.2423256,25.347546 18.1201628,25.5116279 14.8837209,25.5116279 C11.6472791,25.5116279 8.52511628,25.347546 5.58755814,25.0419622 C2.75548837,24.7318623 0.551953488,22.3714909 0.368813953,19.449628 C0.27944186,18.010524 0.23255814,16.5398079 0.23255814,15.0465116 C0.23255814,13.5532154 0.27944186,12.0824993 0.368813953,10.6433952 Z M19.0697674,15.3953488 L12.0930233,10.8604651 L12.0930233,19.9302326 L19.0697674,15.3953488 Z"></path>
    </g>
</svg>